<?xml version="1.0" encoding="UTF-8" standalone="no"?>
<svg 
	xmlns:dc="http://purl.org/dc/elements/1.1/" 
	xmlns:cc="http://web.resource.org/cc/" 
	xmlns:rdf="http://www.w3.org/1999/02/22-rdf-syntax-ns#" 
	xmlns:svg="http://www.w3.org/2000/svg" 
	xmlns="http://www.w3.org/2000/svg" 
	xmlns:sodipodi="http://sodipodi.sourceforge.net/DTD/sodipodi-0.dtd" 
	xmlns:inkscape="http://www.inkscape.org/namespaces/inkscape" 
	version="1.0" 
	width="768" height="464" 
	id="katakana_table" 
	sodipodi:version="0.32" inkscape:version="0.44" sodipodi:docname="Table_katakana.svg">
	<metadata id="metaKatakana">
		<rdf:RDF>
			<cc:Work rdf:about="">
				<dc:format>image/svg+xml</dc:format>
				<dc:type rdf:resource="http://purl.org/dc/dcmitype/StillImage"/>
			</cc:Work>
		</rdf:RDF>
	</metadata>
	<sodipodi:namedview 
		id="base" 
		inkscape:window-height="720" inkscape:window-width="1272" 
		inkscape:window-x="0" inkscape:window-y="0" 
		inkscape:pageshadow="2" inkscape:pageopacity="0.0" 
		inkscape:zoom="1.20" inkscape:cx="341.1" inkscape:cy="169.9" 
		inkscape:current-layer="katakana" inkscape:guide-bbox="true" 
		guidetolerance="10.0" gridtolerance="10.0" objecttolerance="10.0" 
		borderopacity="1.0" bordercolor="#666666" pagecolor="#ffffff" 
		showguides="true"
	/>
	<defs id="defsKatakana">
		<!-- arrow ends -->
		<marker refX="0" refY="0" orient="auto" style="overflow:visible" id="Arrow2Mend">
			<path d="M 8.7,4.03 L -2.20,0.0 L 8.7,-4.00 C 6.97,-1.62 6.98,1.6 8.71,4.0 z " transform="scale(-0.6,-0.6)" class="arrow" id="pArr2Mend" style="stroke:blue"/>
		</marker>
		<marker refX="0" refY="0" orient="auto" style="overflow:visible" id="Arrow2Send">
			<path d="M 8.7,4.03 L -2.20,0.0 L 8.7,-4.00 C 6.97,-1.62 6.98,1.6 8.71,4.0 z " transform="matrix(-0.3,0,0,-0.3,0.69,0)" class="arrow" id="pArr2Send" style="stroke:blue"/>
		</marker>
		<marker refX="0" refY="0" orient="auto" style="overflow:visible" id="Arrow1Send">
			<path d="M 0,0 L 5,-5 L -12.5,0 L 5,5 L 0,0 z " transform="matrix(-0.2,0,0,-0.2,-1.2,0)" class="arrow" id="pArr1Send" style="stroke:blue"/>
		</marker>
		<marker refX="0" refY="0" orient="auto" style="overflow:visible" id="Arrow1Mend">
			<path d="M 0,0 L 5,-5 L -12.5,0 L 5,5 L 0,0 z " transform="matrix(-0.4,0,0,-0.4,-4,0)" class="arrow" id="pArr1Mend" style="stroke:blue"/>
		</marker>
		<marker refX="0" refY="0" orient="auto" style="overflow:visible" id="Arrow1Lend">
			<path d="M 0,0 L 5,-5 L -12.5,0 L 5,5 L 0,0 z " transform="matrix(-0.8,0,0,-0.8,-10,0)" class="arrow" id="pArr1Lend" style="stroke:blue"/>
		</marker>
	</defs>
	<style type="text/css">
		path.stroke /* arrow lines */
		{
			fill: none; fill-opacity: 0.75; fill-rule: evenodd;
			stroke: blue; stroke-width: 1px; stroke-linecap: butt; stroke-linejoin: miter; stroke-opacity:1;
			marker-end: url(#Arrow1Mend);
		}
		path.arrow /* heads */
		{
			font-size: 12px;
			fill-rule: evenodd;
			fill: blue;
			stroke: blue; stroke-width: 1pt;/*0.62*/ stroke-linejoin: round;
			marker-start: none;
		}
		text.number
		{
			font-size: 8px;
			fill: blue;
		}
		text.label
		{
			font-size: 22px;
		}
		text.cell
		{
			font-style: italic;
			text-transform: lowercase;
			fill: gray;
/*			display: none;*/
		}
/*		path.old
		{
			fill: gray;
		}
*/		path.rule
		{
			fill: none; fill-opacity: 0.75; fill-rule: evenodd;
			stroke: black; stroke-width: 1px; stroke-linecap: butt; stroke-linejoin: miter; stroke-opacity: 0.1;
		}
		path.rule[id*="V"]
		{
			stroke-opacity: 0;
			}
		path#ruleH1, path#ruleV12
		{
			stroke-opacity: 0.8;
		}
		defs marker
		{
			overflow: visible;
		}
	</style>
	<!-- table rules -->
	<g id="gTable">
		<!-- vertical rules, left to right -->
		<path d="M 16.5,47.5 L 16.5,447.5" class="rule" id="ruleV01"/>
		<path d="M 80.5,47 L 80.5,447" class="rule" id="ruleV02"/>
		<path d="M 144.5,47 L 144.5,447" class="rule" id="ruleV03"/>
		<path d="M 208.5,47 L 208.5,447" class="rule" id="ruleV04"/>
		<path d="M 272.5,47 L 272.5,447" class="rule" id="ruleV05"/>
		<path d="M 336.5,47 L 336.5,447" class="rule" id="ruleV06"/>
		<path d="M 400.5,47 L 400.5,447" class="rule" id="ruleV07"/>
		<path d="M 464.5,47 L 464.5,447" class="rule" id="ruleV08"/>
		<path d="M 528.5,47 L 528.5,447" class="rule" id="ruleV09"/>
		<path d="M 592.5,47 L 592.5,447" class="rule" id="ruleV10"/>
		<path d="M 656.5,47 L 656.5,447" class="rule" id="ruleV11"/>
		<path d="M 720.5,47 L 720.5,447" class="rule" id="ruleV12"/>
		<!-- horizontal rules, top to bottom -->
		<path d="M 16.5,47.5 L 80.5,47.5 L 144.5,47.5 L 208.5,47.5 L 272.5,47.5 L 336.5,47.5 L 400.5,47.5 L 464.5,47.5 L 528.5,47.5 L 592.5,47.5 L 656.5,47.5 L 720.5,47.5" class="rule" id="ruleH1"/>
		<path d="M 16.5,127.5 L 720.5,127.5" class="rule" id="ruleH2"/>
		<path d="M 16.5,207.5 L 720.5,207.5" class="rule" id="ruleH3"/>
		<path d="M 16.5,287.5 L 16.5,287.5 L 720.5,287.5" class="rule" id="ruleH4"/>
		<path d="M 16.5,367.5 L 720.5,367.5" class="rule" id="ruleH5"/>
		<path d="M 16.5,447.5 L 720.5,447.5" class="rule" id="ruleH6"/>
	</g>
	<!-- glyphs -->
	<text x="38" y="123" id="cellN" class="label cell">N</text>
	<g id="gN">
		<path id="pN" d="M 32.4,62.32 L 30.1,66.4 C 33.4,67.9 36.6,70.2 39.8,73.3 C 41.1,71.7 42.1,70.4 43.0,69.4 C 39.7,66.9 36.2,64.54 32.4,62.32 z M 61.5,68.98 C 60.1,73.3 57.9,77.10 54.9,80.44 C 51.9,83.8 48.2,86.44 43.9,88.51 C 39.7,90.6 36.5,91.7 34.6,91.9 C 32.7,92.0 31.52,92.1 31.1,91.98 C 30.6,92.0 30.4,92.35 30.5,92.9 L 32.6,98.13 C 32.9,98.5 33.2,98.4 33.5,97.98 L 34.1,97.2 C 38.2,96.1 42.7,94.3 47.3,91.8 C 51.96,89.3 55.9,86.2 59.1,82.4 C 62.2,78.60 64.7,74.8 66.5,70.94 C 65.1,70.5 63.4,69.9 61.5,68.98 z "/>
		<path id="pN1" class="stroke" d="M 34.4,57.99 L 47.1,65.94"/>
		<text x="36.6" y="57.0" class="number">1</text>
		<path id="pN2" class="stroke" d="M 34.7,102.5 C 41.2,101.4 54.7,92.9 59.5,90.12"/>
		<text x="27.3" y="105.3" class="number">2</text>
	</g>
	<!-- -A -->
	<text x="94" y="123" id="cellWA" class="label cell">WA</text>
	<g id="gWA">
		<path id="pWA" d="M 95.9,81.2 L 95.9,64.96 L 124.9,64.96 L 124.96,64.8 C 125.1,64.7 125.2,64.7 125.4,64.8 C 126.2,65.54 127.2,66.4 128.4,67.4 C 128.8,67.82 128.8,68.3 128.4,68.8 L 127.9,69.3 C 127.7,72.30 127.4,75.1 126.9,77.8 C 126.4,80.4 125.2,83.18 123.1,86.2 C 121.1,89.08 118.5,91.5 115.45,93.4 C 112.4,95.2 108.53,96.8 103.9,98.0 C 103.5,96.6 102.9,95.1 102.0,93.5 L 102.0,93.13 C 105.8,92.7 109.0,91.8 111.79,90.4 C 114.6,89.1 116.9,87.1 118.9,84.5 C 120.8,81.80 122.0,79.3 122.5,76.9 C 122.95,74.4 123.20,71.8 123.2,68.94 L 100.3,68.94 L 100.3,81.2 L 95.9,81.18"/>
		<path id="pWA1" class="stroke" d="M 91.3,65.0 L 90.97,78.57"/>
		<text x="83.4" y="68.3" class="number">1</text>
		<path id="pWA2" class="stroke" d="M 98.6,61.4 C 99.5,61.4 114.96,61.7 114.96,61.65"/>
		<text x="99.0" y="58.6" class="number">2</text>
	</g>
	<text x="160" y="123" id="cellRA" class="label cell">RA</text>
	<g id="gRA">
		<path id="pRA" d="M 165.3,58.52 L 165.3,62.62 L 187.7,62.62 L 187.7,58.52 L 165.3,58.52 z M 190.8,68.4 C 190.7,68.4 190.6,68.4 190.6,68.5 L 190.4,68.62 L 160.0,68.62 L 160.0,72.6 L 188.4,72.6 C 188.3,74.6 187.8,76.62 186.8,78.74 C 185.9,80.8 184.5,82.7 182.74,84.5 C 181.0,86.21 178.7,87.74 175.9,89.1 C 172.99,90.3 168.99,91.2 163.9,91.5 L 163.9,91.87 C 164.6,93.55 165.0,95.2 165.2,96.74 C 171.5,95.4 176.1,93.9 179.1,92.3 C 182.1,90.7 184.64,88.8 186.7,86.43 C 188.8,84.1 190.4,81.8 191.4,79.6 C 192.4,77.3 192.99,75.2 193.2,73.12 L 194.1,72.4 C 194.6,71.99 194.6,71.5 194.1,70.99 C 192.8,69.93 191.8,69.1 190.99,68.5 C 190.9,68.4 190.8,68.4 190.8,68.4 z "/>
		<path id="pRA1" class="stroke" d="M 165.5,54.91 L 181.95,54.91"/>
		<text x="159.5" y="56.2" class="number">1</text>
		<path id="pRA2a" class="stroke" d="M 155.0,65.50 L 170.0,65.50"/>
		<text x="149.8" y="67.6" class="number">2</text>
		<path id="pRA2b" class="stroke" d="M 187.98,65.5 C 187.98,65.5 194.9,64.2 197.1,66.83 C 199.4,69.5 196.8,75.53 195.9,78.29"/>
	</g>
	<text x="226" y="123" id="cellYA" class="label cell">YA</text>
	<g id="gYA">
		<path id="pYA" d="M 233.6,60.81 L 238.5,60.3 C 238.9,60.3 239.03,60.5 238.9,60.95 L 238.6,61.9 C 239.1,64.93 239.7,67.9 240.3,70.9 C 246.0,69.97 251.8,68.9 257.5,67.7 L 257.6,67.51 C 257.8,67.4 257.9,67.4 258.0,67.51 C 259.6,68.4 261.2,69.3 262.8,70.5 C 263.4,71.03 263.3,71.5 262.6,71.8 L 260.4,72.9 L 260.3,72.9 C 256.3,78.51 252.9,82.7 249.93,85.5 C 249.1,84.3 247.97,83.2 246.6,82.2 L 246.5,81.6 C 249.3,79.8 252.1,76.7 254.9,72.3 C 250.3,72.97 245.7,73.8 241.1,74.6 C 242.7,82.32 244.6,90.0 246.70,97.7 L 246.7,98.2 C 245.3,98.51 243.7,99.0 241.7,99.8 C 239.6,89.61 237.9,81.51 236.6,75.5 C 232.4,76.3 228.2,77.18 223.9,78.2 C 223.4,76.5 222.7,75.2 221.7,74.22 L 221.8,73.75 C 226.5,73.1 231.14,72.4 235.83,71.7 C 234.4,65.34 233.6,62.0 233.3,61.7 C 233.0,61.14 233.2,60.8 233.62,60.81"/>
		<path id="pYA1a" class="stroke" d="M 217.3,71.1 L 231.1,68.74"/>
		<path id="pYA1b" class="stroke" d="M 256.4,65.21 C 256.4,65.21 262.9,64.3 265.6,66.5 C 271.0,71.3 264.2,77.9 262.3,80.28"/>
		<text x="215.0" y="68.3" class="number">1</text>
		<path id="pYA2" class="stroke" d="M 241.9,54.9 L 243.8,65.80"/>
		<text x="245.0" y="57.4" class="number">2</text>
	</g>
	<text x="288" y="123" id="cellMA" class="label cell">MA</text>
	<g id="gMA">
		<path id="pMA" d="M 284.9,65.1 L 320.0,63.73 L 320.2,63.50 C 320.4,63.3 320.50,63.3 320.7,63.5 C 321.6,64.6 322.6,65.7 323.65,66.8 C 324.0,67.4 323.97,67.8 323.5,68.1 L 322.2,68.61 C 320.1,72.20 317.9,75.2 315.5,77.6 C 313.2,79.9 310.6,82.3 307.8,84.6 C 310.0,86.42 312.1,88.30 314.1,90.2 L 314.1,90.6 C 313.0,91.6 311.7,92.91 310.3,94.6 C 307.8,91.4 305.2,88.6 302.51,86.2 C 299.9,83.8 296.98,81.8 293.9,80.1 L 296.5,76.4 C 299.3,78.1 301.95,79.9 304.4,81.7 C 306.5,80.30 308.7,78.5 310.9,76.3 C 313.1,74.2 315.1,71.3 317.0,67.62 C 306.97,67.9 296.7,68.67 286.1,69.83 C 285.8,68.1 285.4,66.6 284.70,65.4 L 284.9,65.09"/>
		<path id="pMA1" class="stroke" d="M 298.1,61.99 C 298.1,61.99 318.8,57.7 325.4,60.95 C 332.0,64.23 326.1,72.3 324.6,75.11"/>
		<text x="292.9" y="59.8" class="number">1</text>
		<path id="pMA2" class="stroke" d="M 291.5,83.6 L 304.6,95.72"/>
		<text x="287.9" y="93.0" class="number">2</text>
	</g>
	<text x="352" y="123" id="cellHA" class="label cell">HA</text>
	<g id="gHA">
		<path id="pHA" d="M 377.2,66.54 L 373.7,69.3 C 375.98,71.6 378.3,74.8 380.54,78.8 C 382.8,82.8 384.76,87.4 386.4,92.7 C 388.7,91.5 390.45,90.6 391.7,90.2 L 391.7,89.98 C 389.5,85.2 387.1,80.8 384.5,76.8 C 382.0,72.8 379.6,69.4 377.2,66.54 z M 360.6,68.4 C 360.3,68.4 360.1,68.6 360.1,68.98 C 360.4,69.39 360.1,70.64 359.4,72.73 C 358.7,74.83 357.3,77.6 355.14,81.2 C 352.98,84.8 350.7,87.6 348.2,89.8 L 348.2,90.5 C 349.6,91.42 350.8,92.5 351.64,93.9 C 354.9,89.70 357.5,85.9 359.5,82.42 C 361.6,78.95 363.4,75.2 364.9,71.0 L 365.5,70.42 C 366.0,70.1 365.98,69.8 365.5,69.6 L 360.95,68.5 C 360.8,68.40 360.7,68.4 360.6,68.4 z "/>
		<path id="pHA1" class="stroke" d="M 355.6,67.4 C 356.1,71.9 351.23,79.3 348.8,82.91"/>
		<text x="347.1" y="69.6" class="number">1</text>
		<path id="pHA2" class="stroke" d="M 383.5,66.6 L 393.3,82.39"/>
		<text x="387.2" y="68.9" class="number">2</text>
	</g>
	<text x="416" y="123" id="cellNA" class="label cell">NA</text>
	<g id="gNA">
		<path id="pNA" d="M 421.99,92.8 C 424.99,91.7 427.4,90.3 429.12,88.6 C 430.9,86.95 432.1,84.9 432.7,82.5 C 433.4,79.98 433.8,77.4 433.9,74.8 L 415.3,74.8 L 415.3,70.6 L 433.9,70.6 C 433.8,68.23 433.7,65.4 433.5,62.1 C 433.5,61.4 433.4,60.8 433.2,60.4 C 433.0,59.96 433.1,59.71 433.6,59.6 L 438.4,59.8 C 438.8,59.93 438.9,60.20 438.6,60.60 L 438.1,61.5 C 438.3,65.1 438.4,68.1 438.40,70.6 L 454.5,70.6 L 454.5,74.8 L 438.4,74.8 C 438.3,77.5 437.9,80.3 437.1,83.10 C 436.4,85.91 435.2,88.5 433.3,90.7 C 431.4,93.02 428.6,95.2 424.71,97.4 C 423.99,95.8 423.1,94.5 421.99,93.4 L 421.99,92.81"/>
		<path id="pNA1" class="stroke" d="M 413.0,66.99 L 428.7,67.20"/>
		<text x="411.6" y="64.4" class="number">1</text>
		<path id="pNA2" class="stroke" d="M 442.95,56.0 L 442.5,67.48"/>
		<text x="445.9" y="59.5" class="number">2</text>
	</g>
	<text x="484" y="123" id="cellTA" class="label cell">TA</text>
	<g id="gTA">
		<path id="pTA" d="M 490.98,58.4 C 491.0,57.83 491.3,57.7 491.8,57.9 L 496.2,58.7 C 496.7,58.9 496.7,59.2 496.3,59.5 L 495.5,60.2 C 495.1,61.5 494.6,62.8 494.1,63.9 L 507.5,63.94 L 507.7,63.8 C 507.8,63.60 507.9,63.60 508.1,63.8 C 509.1,64.4 510.2,65.3 511.4,66.2 C 511.9,66.6 511.9,66.99 511.3,67.5 L 510.6,67.9 C 510.4,70.01 509.97,72.3 509.2,74.63 C 508.5,77.01 507.3,79.5 505.5,82.04 C 506.1,82.51 506.7,82.99 507.3,83.5 C 506.1,84.8 505.0,86.13 503.9,87.6 C 503.5,87.0 502.97,86.5 502.47,85.97 C 500.7,87.91 498.5,89.8 495.7,91.7 C 492.9,93.7 488.8,95.5 483.2,97.22 C 482.7,95.63 482.0,94.21 481.2,92.96 L 481.2,92.5 C 485.8,91.8 489.6,90.5 492.48,88.7 C 495.4,86.8 497.7,84.9 499.42,82.9 C 498.7,82.3 497.6,81.4 496.1,80.3 C 494.6,79.2 492.3,77.83 489.2,76.3 L 491.3,72.80 C 494.6,74.5 497.0,75.9 498.6,76.97 C 500.2,78.1 501.4,78.9 502.1,79.4 C 503.2,77.6 504.1,75.7 504.8,73.7 C 505.4,71.7 505.8,69.7 506.0,67.74 L 492.3,67.74 C 491.6,69.1 490.50,70.8 489.1,72.9 C 487.6,74.96 485.4,77.7 482.4,81.0 C 481.4,79.8 480.3,78.7 478.9,77.6 L 478.9,77.4 C 481.8,75.0 484.13,72.4 486.1,69.7 C 488.0,66.9 489.4,64.4 490.14,62.3 C 490.95,60.1 491.2,58.8 490.98,58.37"/>
		<path id="pTA1" class="stroke" d="M 487.8,58.6 C 485.95,62.4 480.3,69.98 477.8,73.23"/>
		<text x="478.1" y="62.9" class="number">1</text>
		<path id="pTA2" class="stroke" d="M 502.1,60.20 C 502.1,60.20 511.9,57.88 514.6,61.7 C 517.4,65.5 514.4,72.1 513.2,75.37"/>
		<text x="508.0" y="57.8" class="number">2</text>
		<path id="pTA3" class="stroke" d="M 487.0,78.83 L 494.7,84.03"/>
		<text x="482.4" y="87.7" class="number">3</text>
	</g>
	<text x="546" y="123" id="cellSA" class="label cell">SA</text>
	<g id="gSA">
		<path id="pSA" d="M 541.2,71.1 L 551.1,71.05 C 551.1,68.7 551.1,66.2 551.1,63.6 C 551.1,62.9 551.00,62.4 550.8,61.91 C 550.6,61.51 550.8,61.3 551.2,61.16 L 555.9,61.54 C 556.3,61.8 556.3,62.0 555.92,62.3 L 555.4,63.1 C 555.3,65.91 555.3,68.6 555.4,71.1 L 567.8,71.1 L 567.8,61.4 C 567.8,60.79 567.7,60.2 567.50,59.8 C 567.3,59.4 567.4,59.10 567.9,59.0 L 572.8,59.4 C 573.1,59.63 573.1,59.93 572.8,60.3 L 572.2,61.02 L 572.2,71.1 L 582.97,71.1 L 582.97,75.0 L 572.2,75.04 L 572.2,75.3 C 572.2,78.7 571.9,81.7 571.1,84.32 C 570.4,86.9 569.2,89.2 567.50,91.2 C 565.8,93.21 562.6,95.5 557.9,97.96 C 557.4,96.62 556.5,95.32 555.4,94.1 L 555.4,93.6 C 558.5,92.5 561.1,91.2 563.0,89.62 C 564.9,88.02 566.2,86.1 566.8,83.76 C 567.5,81.4 567.8,78.6 567.8,75.3 L 567.8,75.0 L 555.5,75.0 C 555.5,78.63 555.7,81.94 555.9,84.98 L 551.5,85.6 C 551.3,82.29 551.2,78.8 551.1,75.0 L 541.2,75.0 L 541.2,71.05"/>
		<path id="pSA1" class="stroke" d="M 535.7,67.9 L 548.7,68.03"/>
		<text x="535.4" y="65.6" class="number">1</text>
		<path id="pSA2" class="stroke" d="M 559.2,58.0 L 559.5,68.60"/>
		<text x="556.7" y="56.8" class="number">2</text>
		<path id="pSA3" class="stroke" d="M 576.2,57.96 L 576.2,68.47"/>
		<text x="573.6" y="56.8" class="number">3</text>
	</g>
	<text x="610" y="123" id="cellKA" class="label cell">KA</text>
	<g id="gKA">
		<path id="pKA" d="M 605.1,91.96 C 608.3,89.3 610.96,86.4 613.12,83.3 C 615.3,80.13 616.7,77.4 617.2,75.1 C 617.8,72.8 618.2,71.04 618.4,69.9 C 613.95,70.1 609.5,70.4 604.96,70.8 C 604.9,69.2 604.7,67.8 604.4,66.50 L 604.4,66.22 L 618.9,65.80 C 619.1,64.2 619.13,62.6 619.2,60.9 L 619.2,57.9 C 619.2,57.3 619.1,56.7 618.9,56.2 C 618.7,55.83 618.8,55.6 619.3,55.5 L 623.95,55.8 C 624.4,55.9 624.4,56.2 624.0,56.61 L 623.6,57.4 L 623.6,61.0 C 623.5,62.61 623.5,64.2 623.3,65.7 L 635.2,65.33 L 635.3,65.2 C 635.5,65.0 635.60,65.0 635.8,65.2 C 636.8,65.9 637.8,66.6 638.81,67.4 C 639.4,67.8 639.4,68.2 638.8,68.61 L 638.2,69.1 C 638.2,75.18 638.0,79.7 637.7,82.54 C 637.5,85.4 637.24,87.4 637.0,88.4 C 636.8,89.4 636.6,90.3 636.3,91.02 C 636.0,91.8 635.5,92.6 634.59,93.5 C 633.7,94.4 632.5,94.60 630.9,94.2 C 629.4,93.7 627.40,93.1 625.02,92.4 C 625.5,90.91 625.9,89.4 626.1,87.8 L 626.4,87.7 C 627.99,88.5 629.23,89.0 630.13,89.2 C 631.0,89.4 631.6,89.33 631.8,89.14 C 632.1,88.9 632.32,88.5 632.6,87.9 C 632.8,87.30 633.1,85.63 633.4,82.91 C 633.7,80.2 633.9,75.7 633.8,69.5 C 630.1,69.50 626.5,69.6 622.8,69.7 C 622.6,70.9 622.12,72.8 621.5,75.3 C 620.8,77.82 619.5,80.8 617.6,84.2 C 615.7,87.66 612.6,91.6 608.5,95.99 C 607.5,94.7 606.4,93.4 605.10,92.3 L 605.1,91.96"/>
		<path id="pKA1a" class="stroke" d="M 602.1,62.7 L 614.4,62.12"/>
		<path id="pKA1b" class="stroke" d="M 631.7,61.5 C 631.7,61.5 638.9,60.1 642.74,62.3 C 646.6,64.4 645.4,71.4 645.4,74.44"/>
		<text x="601.0" y="60.1" class="number">1</text>
		<path id="pKA2" class="stroke" d="M 627.98,52.5 L 627.4,63.03"/>
		<text x="630.1" y="56.2" class="number">2</text>
	</g>
	<text x="682" y="123" id="cellA" class="label cell">A</text>
	<g id="gA">
		<path id="pA" d="M 672.7,62.0 L 705.6,61.60 L 706.0,61.13 C 706.1,60.98 706.3,60.98 706.4,61.13 C 707.5,62.01 708.9,63.1 710.6,64.4 C 711.2,64.9 711.13,65.4 710.4,65.8 L 708.9,66.43 C 706.9,69.3 705.00,71.7 703.3,73.5 C 701.5,75.24 698.95,77.3 695.61,79.7 C 694.8,78.13 693.99,76.98 693.1,76.2 C 692.7,80.2 691.8,83.9 690.22,87.5 C 688.7,91.1 685.81,94.6 681.59,97.9 C 680.8,96.4 679.72,95.1 678.50,94.0 L 678.5,93.8 C 681.9,91.82 684.5,89.3 686.2,86.1 C 687.99,82.9 688.89,78.4 688.95,72.7 C 688.95,72.1 688.9,71.5 688.7,71.0 C 688.5,70.6 688.61,70.4 689.1,70.3 L 693.8,70.6 C 694.3,70.7 694.3,70.9 693.97,71.3 L 693.3,72.2 C 693.3,73.2 693.24,74.3 693.2,75.3 C 695.6,74.2 697.7,72.9 699.5,71.31 C 701.3,69.74 702.8,67.74 703.95,65.3 C 693.3,65.40 683.2,65.8 673.63,66.6 C 673.4,65.1 673.1,63.8 672.7,62.68 L 672.7,62.03"/>
		<path id="pA1a" class="stroke" d="M 670.1,59.2 C 672.2,59.2 684.4,58.6 684.4,58.6"/>
		<path id="pA1b" class="stroke" d="M 702.2,58.9 C 702.2,58.9 708.2,56.9 712.21,59.4 C 719.3,63.7 713.2,71.3 710.9,74.87"/>
		<text x="668.1" y="56.3" class="number">1</text>
		<path id="pA2" class="stroke" d="M 686.4,72.2 C 687.9,78.7 681.1,85.31 677.4,89.26"/>
		<text x="677.3" y="79.2" class="number">2</text>
	</g>
	<!-- -I -->
	<text x="98" y="203" id="cellWI" class="label cell">WI</text>
	<g id="gWI">
		<path id="pWI" class="old" d="M 113.7,139.44 C 113.4,139.51 113.3,139.8 113.4,140.2 C 113.6,140.6 113.7,141.3 113.7,142.3 L 113.7,148.3 L 97.0,148.3 L 97.0,152.22 L 101.5,152.22 L 101.5,162.9 L 92.9,162.9 L 92.9,166.84 L 113.7,166.8 L 113.7,178.8 L 118.1,178.81 L 118.1,166.84 L 132.9,166.8 L 132.9,162.87 L 118.1,162.9 L 118.1,152.22 L 126.6,152.2 L 126.6,148.3 L 118.1,148.3 L 118.1,141.44 L 118.7,140.4 C 118.9,140.1 118.9,139.81 118.6,139.7 L 114.1,139.4 C 113.9,139.42 113.8,139.41 113.7,139.44 z M 105.9,152.2 L 113.7,152.2 L 113.7,162.9 L 105.9,162.87 L 105.9,152.2 z "/>
		<path id="pWI1" class="stroke" d="M 98.5,144.9 L 108.9,144.85"/>
		<text x="96.8" y="142.4" class="number">1</text>
		<path id="pWI2" class="stroke" d="M 95.8,151.62 L 95.5,160.89"/>
		<text x="87.7" y="157.0" class="number">2</text>
		<path id="pWI3" class="stroke" d="M 94.8,170.14 L 109.7,170.35"/>
		<text x="94.7" y="178.4" class="number">3</text>
		<path id="pWI4" class="stroke" d="M 122.2,135.1 L 122.1,145.68"/>
		<text x="125.3" y="143.0" class="number">4</text>
	</g>
	<text x="164" y="203" id="cellRI" class="label cell">RI</text>
	<g id="gRI">
		<path id="pRI" d="M 181.3,137.4 C 180.8,137.5 180.7,137.7 180.9,138.1 C 181.1,138.6 181.2,139.1 181.2,139.8 L 181.2,151.6 C 181.2,156.7 180.9,160.4 180.2,162.8 C 179.6,165.1 178.1,167.3 175.7,169.3 C 173.4,171.3 170.4,172.7 166.97,173.6 L 166.97,174.1 C 168.1,175.2 169.0,176.5 169.7,178.1 C 174.6,175.7 178.10,173.4 180.3,171.02 C 182.5,168.61 184.0,166.1 184.7,163.3 C 185.4,160.5 185.72,156.6 185.72,151.6 L 185.7,139.23 L 186.2,138.17 C 186.4,137.92 186.3,137.70 185.9,137.52 L 181.3,137.4 z M 163.2,139.2 C 162.7,139.33 162.6,139.6 162.8,139.98 C 162.97,140.5 163.1,141.0 163.1,141.7 L 163.1,162.3 L 167.6,162.30 L 167.6,141.1 L 168.2,140.1 C 168.5,139.8 168.41,139.6 168.0,139.42 L 163.2,139.2 z "/>
		<path id="pRI1" class="stroke" d="M 158.2,140.1 L 158.2,155.47"/>
		<text x="151.4" y="146.0" class="number">1</text>
		<path id="pRI2" class="stroke" d="M 191.5,137.6 L 191.5,154.63"/>
		<text x="195.2" y="143.2" class="number">2</text>
	</g>
	<text x="292" y="203" id="cellMI" class="label cell">MI</text>
	<g id="gMI">
		<path id="pMI" d="M 295.8,139.6 L 294.6,143.59 C 301.6,144.6 308.4,146.5 314.9,149.3 C 315.5,147.7 316.2,146.31 316.9,145.2 L 316.9,144.91 C 311.0,142.94 303.96,141.2 295.8,139.6 z M 295.6,151.7 L 294.5,155.9 C 300.9,156.9 307.14,158.7 313.30,161.3 C 314.1,159.6 314.8,158.3 315.5,157.3 L 315.5,156.9 C 309.3,154.97 302.6,153.22 295.6,151.7 z M 290.9,163.7 L 289.6,168.4 C 299.4,169.9 308.5,172.84 316.9,177.3 C 317.7,175.34 318.6,173.8 319.4,172.5 L 319.4,172.1 C 310.8,168.7 301.3,165.8 290.9,163.7 z "/>
		<path id="pMI1" class="stroke" d="M 298.1,135.90 C 302.7,136.1 308.99,139.1 312.6,140.79"/>
		<text x="291.7" y="137.2" class="number">1</text>
		<path id="pMI2" class="stroke" d="M 294.8,147.6 C 300.3,147.24 306.8,150.5 310.6,152.55"/>
		<text x="288.5" y="149.9" class="number">2</text>
		<path id="pMI3" class="stroke" d="M 292.2,160.7 C 297.9,160.5 304.3,163.4 307.2,164.52"/>
		<text x="286.0" y="162.1" class="number">3</text>
	</g>
	<text x="358" y="203" id="cellHI" class="label cell">HI</text>
	<g id="gHI">
		<path id="pHI" d="M 381.6,151.2 C 382.0,151.73 381.9,151.98 381.2,151.98 L 380.1,151.9 C 374.7,154.2 367.4,156.1 358.1,157.74 L 358.1,166.32 C 358.1,168.60 359.1,169.7 360.96,169.7 L 384.7,169.74 L 384.1,174.1 L 361.1,174.1 C 356.1,174.10 353.6,171.6 353.6,166.5 L 353.6,142.9 C 353.6,142.23 353.6,141.7 353.4,141.2 C 353.2,140.8 353.3,140.54 353.7,140.5 L 358.5,140.73 C 358.9,140.9 358.99,141.1 358.71,141.5 L 358.1,142.41 L 358.1,153.95 C 365.1,152.73 369.99,151.5 372.8,150.2 C 375.6,148.99 377.1,148.2 377.17,147.7 C 377.4,147.3 377.7,147.1 378.1,147.3 L 381.6,151.23"/>
		<path id="pHI1" class="stroke" d="M 360.6,150.8 C 366.3,149.5 369.96,147.5 374.20,145.29"/>
		<text x="360.8" y="146.8" class="number">1</text>
		<path id="pHI2a" class="stroke" d="M 349.7,138.40 L 349.6,149.43"/>
		<text x="343.5" y="140.3" class="number">2</text>
		<path id="pHI2b" class="stroke" d="M 348.7,166.02 C 348.7,169.52 347.8,173.42 351.2,176.18 C 354.5,178.9 361.4,178.35 366.3,178.09"/>
	</g>
	<text x="422" y="203" id="cellNI" class="label cell">NI</text>
	<g id="gNI">
		<path id="pNI" d="M 419.9,145.7 L 419.9,149.9 L 447.1,149.9 L 447.1,145.7 L 419.9,145.7 z M 413.2,168.4 L 413.2,172.54 L 453.7,172.54 L 453.7,168.4 L 413.2,168.4 z "/>
		<path id="pNI1" class="stroke" d="M 423.4,141.6 L 442.5,141.61"/>
		<text x="422.9" y="139.2" class="number">1</text>
		<path id="pNI2" class="stroke" d="M 415.4,165.5 L 438.7,165.46"/>
		<text x="414.9" y="162.7" class="number">2</text>
	</g>
	<text x="478" y="203" id="cellTI" class="label cell">CHI</text>
	<g id="gTI">
		<path id="pTI" d="M 477.2,155.3 L 496.2,155.3 L 496.2,148.61 C 496.2,147.96 496.1,147.4 495.9,146.93 L 495.9,146.8 C 492.6,147.5 488.40,148.3 483.3,149.1 C 482.9,147.43 482.4,146.1 481.72,145.2 L 481.8,144.7 C 486.4,144.5 490.4,144.0 493.6,143.4 C 496.8,142.71 499.7,141.94 502.3,141.1 C 504.8,140.2 506.1,139.6 506.1,139.3 C 506.4,138.82 506.8,138.78 507.1,139.2 L 509.4,142.52 C 509.9,143.0 509.8,143.3 509.14,143.4 L 508.2,143.4 C 504.7,144.6 501.5,145.6 498.59,146.3 L 500.9,146.4 C 501.4,146.5 501.4,146.8 501.1,147.21 L 500.7,148.0 L 500.7,155.3 L 517.7,155.3 L 517.7,159.4 L 500.5,159.44 C 500.4,161.6 500.00,163.8 499.4,165.96 C 498.9,168.1 497.7,170.3 495.8,172.4 C 493.98,174.5 490.90,176.4 486.6,178.1 C 486.1,176.6 485.3,175.4 484.2,174.4 L 484.2,173.83 C 487.6,172.99 490.1,171.83 491.8,170.4 C 493.6,168.9 494.7,167.2 495.17,165.3 C 495.6,163.4 495.95,161.4 496.11,159.4 L 477.2,159.4 L 477.2,155.27"/>
		<path id="pTI1" class="stroke" d="M 503.9,136.7 C 498.5,139.54 490.6,140.3 483.5,141.41"/>
		<text x="493.2" y="136.9" class="number">1</text>
		<path id="pTI2" class="stroke" d="M 477.9,152.1 L 492.3,152.09"/>
		<text x="475.2" y="150.0" class="number">2</text>
		<path id="pTI3" class="stroke" d="M 504.2,160.9 C 505.4,169.14 501.1,171.9 497.70,175.33"/>
		<text x="506.9" y="171.7" class="number">3</text>
	</g>
	<text x="542" y="203" id="cellSI" class="label cell">SHI</text>
	<g id="gSI">
		<path id="pSI" d="M 547.98,139.7 L 545.8,143.4 C 549.6,144.7 553.1,146.8 556.23,149.9 C 557.1,148.43 558.0,147.1 558.95,145.8 C 555.7,143.5 552.0,141.40 547.98,139.7 z M 543.1,150.34 L 540.95,154.1 C 544.7,155.34 548.2,157.5 551.4,160.6 C 552.3,159.1 553.2,157.8 554.1,156.5 C 550.8,154.2 547.1,152.1 543.1,150.34 z M 575.4,150.43 C 573.8,154.12 571.5,157.6 568.3,160.84 C 565.2,164.1 561.5,166.62 557.3,168.52 C 553.1,170.40 550.1,171.5 548.4,171.7 C 546.6,171.9 545.42,171.96 544.9,171.9 C 544.4,171.96 544.2,172.24 544.4,172.74 L 546.2,177.40 C 546.5,177.9 546.8,177.9 547.11,177.4 L 547.7,176.65 C 551.9,175.6 556.3,173.9 560.8,171.6 C 565.4,169.3 569.26,166.3 572.42,162.8 C 575.6,159.3 578.0,155.99 579.8,152.96 C 578.3,152.34 576.9,151.5 575.4,150.43 z "/>
		<path id="pSI1" class="stroke" d="M 546.4,135.3 C 547.6,135.57 557.7,141.31 557.7,141.31"/>
		<text x="540.6" y="138.3" class="number">1</text>
		<path id="pSI2" class="stroke" d="M 541.8,145.52 L 551.97,151.70"/>
		<text x="536.2" y="147.8" class="number">2</text>
		<path id="pSI3" class="stroke" d="M 553.3,179.50 C 559.1,178.3 564.1,174.8 569.9,170.81"/>
		<text x="547.0" y="183.3" class="number">3</text>
	</g>
	<text x="614" y="203" id="cellKI" class="label cell">KI</text>
	<g id="gKI">
		<path id="pKI" d="M 635.8,142.63 L 636.9,146.6 C 632.8,147.2 628.54,147.9 624.20,148.6 C 624.8,151.6 625.5,154.53 626.2,157.53 C 631.4,156.8 636.4,155.9 641.2,155.1 L 642.5,159.41 C 637.6,160.0 632.5,160.7 627.2,161.5 C 628.3,166.2 629.5,170.97 630.9,175.8 L 630.8,176.3 C 629.5,176.44 627.9,176.96 626.0,177.83 C 624.8,171.9 623.61,166.7 622.61,162.2 C 617.2,163.1 611.6,164.03 605.8,165.13 C 605.6,163.7 605.2,162.3 604.6,160.9 L 604.7,160.5 C 610.6,159.8 616.3,159.0 621.8,158.2 C 621.0,154.8 620.4,151.8 619.8,149.4 C 615.7,150.03 611.6,150.7 607.3,151.5 C 607.1,150.05 606.7,148.72 606.3,147.5 L 606.4,147.1 C 610.7,146.6 614.9,146.1 618.95,145.5 C 617.95,141.2 617.3,138.9 617.1,138.64 C 616.8,138.1 616.84,137.9 617.4,137.9 L 622.1,137.24 C 622.5,137.30 622.6,137.52 622.5,137.9 L 622.2,138.8 C 622.6,140.8 622.96,142.8 623.40,144.8 C 627.8,144.1 631.9,143.4 635.82,142.63"/>
		<path id="pKI1" class="stroke" d="M 603.7,144.11 L 614.4,142.93"/>
		<text x="598.5" y="147.0" class="number">1</text>
		<path id="pKI2" class="stroke" d="M 604.4,157.21 L 616.8,155.15"/>
		<text x="598.6" y="159.7" class="number">2</text>
		<path id="pKI3" class="stroke" d="M 623.9,131.2 L 626.5,140.58"/>
		<text x="628.2" y="138.3" class="number">3</text>
	</g>
	<text x="686" y="203" id="cellI" class="label cell">I</text>
	<g id="gI">
		<path id="pI" d="M 696.9,137.6 C 697.1,137.0 697.4,136.8 697.9,136.91 L 702.8,139.44 C 703.3,139.8 703.4,140.0 702.93,140.3 L 701.7,140.8 C 699.6,143.41 697.7,145.65 695.9,147.5 C 694.0,149.3 692.5,150.71 691.3,151.8 L 692.9,151.87 C 693.4,151.9 693.5,152.1 693.14,152.6 L 692.7,153.3 L 692.7,169.4 C 692.7,172.68 692.7,175.12 692.9,176.7 L 687.9,176.71 C 688.1,173.40 688.2,169.1 688.2,163.8 L 688.2,154.30 C 687.4,154.96 685.8,156.1 683.6,157.7 C 681.4,159.24 677.1,161.7 670.7,165.04 C 670.2,163.5 669.4,161.99 668.3,160.6 L 668.3,160.21 C 672.97,158.6 677.3,156.5 681.3,153.9 C 685.3,151.26 688.5,148.7 690.84,146.3 C 693.2,143.93 694.9,141.96 695.9,140.4 C 696.8,138.90 697.2,137.9 696.93,137.57"/>
		<path id="pI1" class="stroke" d="M 691.6,137.5 C 689.8,144.4 677.3,149.93 670.8,153.24"/>
		<text x="679.0" y="142.7" class="number">1</text>
		<path id="pI2" class="stroke" d="M 698.9,150.6 L 698.9,170.17"/>
		<text x="701.6" y="158.9" class="number">2</text>
	</g>
	<!-- -U -->
	<text x="161" y="283" id="cellRU" class="label cell">RU</text>
	<g id="gRU">
		<path id="pRU" d="M 178.1,220.91 C 177.7,221.0 177.6,221.3 177.8,221.7 C 177.9,222.13 178.0,222.7 178.0,223.4 L 178.0,249.8 L 176.4,250.4 L 176.4,250.9 C 177.2,251.60 178.1,252.7 178.9,254.3 C 183.8,251.97 187.8,249.5 190.7,246.8 C 193.6,244.1 196.4,240.6 199.1,236.3 C 197.8,235.4 196.5,234.4 195.2,233.4 L 194.6,233.44 C 192.7,237.97 190.6,241.22 188.4,243.2 C 186.3,245.1 184.31,246.6 182.50,247.6 L 182.5,222.8 L 182.97,221.9 C 183.3,221.5 183.22,221.3 182.8,221.10 L 178.1,220.91 z M 166.9,223.72 C 166.5,223.82 166.4,224.1 166.6,224.5 C 166.8,224.9 166.9,225.5 166.9,226.2 C 167.0,232.9 166.2,238.1 164.4,242.0 C 162.5,245.9 159.7,249.0 155.81,251.5 L 155.8,252.10 C 157.0,252.8 158.2,253.9 159.4,255.3 C 163.4,251.6 166.4,247.5 168.4,243.0 C 170.3,238.53 171.3,232.7 171.3,225.6 L 171.7,224.63 C 171.9,224.4 171.9,224.1 171.53,224.0 L 166.9,223.72 z "/>
		<path id="pRU1" class="stroke" d="M 163.5,225.7 C 163.5,232.84 157.96,241.4 155.7,244.87"/>
		<text x="154.9" y="231.8" class="number">1</text>
		<path id="pRU2" class="stroke" d="M 185.2,222.01 L 185.3,237.94 L 193.9,229.61"/>
		<text x="187.5" y="224.3" class="number">2</text>
	</g>
	<text x="226" y="283" id="cellYU" class="label cell">YU</text>
	<g id="gYU">
		<path id="pYU" d="M 221.8,246.6 L 247.1,246.6 L 248.0,228.97 L 226.9,228.97 L 226.9,224.99 L 252.9,224.99 L 251.6,246.55 L 261.7,246.6 L 261.7,250.54 L 221.8,250.5 L 221.8,246.55"/>
		<path id="pYU1" class="stroke" d="M 238.8,221.3 L 257.5,221.3 L 256.3,235.62"/>
		<text x="239.6" y="219.1" class="number">1</text>
		<path id="pYU2" class="stroke" d="M 224.4,254.4 L 241.7,254.35"/>
		<text x="218.5" y="258.3" class="number">2</text>
	</g>
	<text x="288" y="283" id="cellMU" class="label cell">MU</text>
	<g id="gMU">
		<path id="pMU" d="M 302.2,219.5 C 302.2,218.96 302.5,218.8 303.1,218.97 L 307.97,220.1 C 308.5,220.4 308.5,220.7 307.97,221.0 L 307.2,221.8 C 305.95,226.5 304.64,230.6 303.23,234.1 C 301.9,237.6 299.9,241.9 297.4,247.00 C 298.8,246.91 300.7,246.8 303.1,246.6 C 305.5,246.4 310.5,245.8 318.0,244.7 C 316.7,242.1 314.8,239.33 312.5,236.5 L 316.2,233.8 C 318.8,237.2 320.98,240.4 322.73,243.5 C 324.5,246.6 325.98,249.3 327.23,251.7 L 327.1,252.11 C 325.6,252.71 323.9,253.6 321.98,254.6 C 321.3,252.4 320.5,250.18 319.6,248.1 C 312.8,249.1 307.8,249.9 304.6,250.3 C 301.4,250.7 296.4,251.5 289.8,252.6 L 289.2,253.5 C 288.8,254.1 288.5,254.1 288.2,253.61 L 286.2,248.3 C 286.1,247.74 286.3,247.6 286.7,247.8 C 287.1,247.9 289.0,247.8 292.4,247.5 C 295.3,242.0 297.42,237.3 298.83,233.5 C 300.2,229.6 301.2,226.4 301.7,223.9 C 302.3,221.4 302.5,219.9 302.2,219.49"/>
		<path id="pMU1" class="stroke" d="M 288.9,233.3 C 288.9,233.3 277.63,248.4 279.9,254.4 C 282.2,260.4 294.6,257.2 300.7,255.96"/>
		<text x="277.9" y="238.8" class="number">1</text>
		<path id="pMU2" class="stroke" d="M 319.8,233.2 C 325.1,235.2 327.8,243.6 329.6,247.93"/>
		<text x="324.6" y="234.6" class="number">2</text>
	</g>
	<text x="354" y="283" id="cellHU" class="label cell">FU</text>
	<g id="gHU">
		<path id="pHU" d="M 352.7,224.00 L 382.6,224.00 L 382.7,223.95 C 382.8,223.79 382.9,223.8 383.1,223.95 C 383.9,224.7 384.9,225.51 386.1,226.5 C 386.5,226.95 386.5,227.42 386.1,227.9 L 385.5,228.4 C 385.2,231.43 384.6,234.23 383.6,236.8 C 382.7,239.4 381.1,241.95 378.8,244.6 C 376.6,247.2 373.9,249.4 370.8,251.1 C 367.7,252.8 363.3,254.29 357.6,255.6 C 357.4,254.0 357.03,252.5 356.50,251.1 L 356.5,250.6 C 360.9,250.1 364.6,249.2 367.42,247.95 C 370.3,246.7 372.7,244.97 374.7,242.8 C 376.7,240.68 378.1,238.43 379.1,236.09 C 379.98,233.7 380.51,231.1 380.6,228.2 L 352.7,228.2 L 352.7,224.00"/>
		<path id="pHU1a" class="stroke" d="M 352.4,220.7 L 364.8,220.95"/>
		<path id="pHU1b" class="stroke" d="M 381.8,245.9 C 380.3,249.22 372.0,254.42 369.3,256.11"/>
		<text x="352.8" y="218.5" class="number">1</text>
	</g>
	<text x="416" y="283" id="cellNU" class="label cell">NU</text>
	<g id="gNU">
		<path id="pNU" d="M 420.7,223.80 C 428.6,223.64 436.5,223.31 444.4,222.81 L 444.7,222.4 C 444.8,222.3 444.9,222.3 445.1,222.44 C 446.2,223.3 447.3,224.3 448.6,225.5 C 449.1,225.91 449.1,226.3 448.4,226.8 L 447.5,227.3 C 446.3,231.1 444.1,235.4 440.9,240.2 C 444.0,242.53 447.0,245.1 449.9,247.8 L 449.9,248.2 C 448.6,249.2 447.40,250.5 446.5,251.97 C 443.8,248.7 441.1,245.9 438.3,243.4 C 436.5,245.4 434.1,247.4 431.1,249.6 C 428.1,251.74 424.2,253.81 419.4,255.8 C 418.7,254.3 417.9,252.83 416.9,251.6 L 416.9,251.03 C 421.1,250.2 424.7,248.8 427.52,246.95 C 430.4,245.1 432.9,243.0 434.9,240.8 C 432.3,238.95 429.6,237.4 426.7,235.9 L 428.8,232.2 C 431.9,234.1 434.8,235.9 437.4,237.6 C 439.99,233.9 441.7,230.4 442.4,226.99 C 435.96,227.2 428.99,227.7 421.5,228.30 C 421.3,226.6 420.99,225.2 420.6,224.1 L 420.7,223.80"/>
		<path id="pNU1a" class="stroke" d="M 417.0,220.81 L 428.8,220.22"/>
		<path id="pNU1b" class="stroke" d="M 435.8,250.54 C 432.4,255.0 427.84,256.3 424.5,257.61"/>
		<text x="415.8" y="218.2" class="number">1</text>
		<path id="pNU2" class="stroke" d="M 420.3,236.4 L 429.9,241.86"/>
		<text x="414.3" y="239.2" class="number">2</text>
	</g>
	<text x="476" y="283" id="cellTU" class="label cell">TSU</text>
	<g id="gTU">
		<path id="pTU" d="M 510.8,221.2 C 510.4,221.23 510.2,221.4 510.12,221.8 C 510.4,222.2 510.40,223.4 510.2,225.5 C 509.97,227.6 509.0,230.8 507.4,235.2 C 505.8,239.6 503.1,243.3 499.4,246.34 C 495.7,249.4 491.5,251.5 486.8,252.7 L 486.8,253.1 C 487.9,254.4 488.7,255.8 489.3,257.3 C 495.5,254.7 500.4,251.6 504.0,248.12 C 507.6,244.7 510.2,240.7 511.9,236.22 C 513.6,231.72 514.8,227.7 515.3,224.2 L 516.1,223.4 C 516.44,223.0 516.40,222.8 516.0,222.6 L 511.2,221.3 C 511.0,221.24 510.9,221.2 510.8,221.2 z M 492.2,221.3 L 489.0,224.00 C 491.7,226.6 494.1,229.8 496.03,233.8 C 497.3,232.62 498.6,231.62 499.97,230.8 C 497.7,227.4 495.1,224.3 492.2,221.3 z M 481.7,225.1 L 478.5,227.8 C 481.2,230.31 483.6,233.56 485.5,237.50 C 486.8,236.4 488.1,235.4 489.5,234.5 C 487.2,231.18 484.6,228.0 481.7,225.1 z "/>
		<path id="pTU1" class="stroke" d="M 483.5,222.21 L 490.8,232.20"/>
		<text x="479.8" y="220.5" class="number">1</text>
		<path id="pTU2" class="stroke" d="M 494.1,217.80 L 501.3,225.90"/>
		<text x="488.8" y="216.7" class="number">2</text>
		<path id="pTU3" class="stroke" d="M 519.2,224.34 C 517.4,234.6 515.5,237.9 513.53,242.16"/>
		<text x="517.5" y="222.6" class="number">3</text>
	</g>
	<text x="546" y="283" id="cellSU" class="label cell">SU</text>
	<g id="gSU">
		<path id="pSU" d="M 545.9,223.4 C 553.3,223.5 560.8,223.31 568.6,222.8 L 568.9,222.6 C 569.0,222.42 569.1,222.42 569.3,222.6 C 570.6,223.6 571.8,224.5 572.9,225.24 C 573.4,225.7 573.4,226.1 572.72,226.6 L 571.7,227.21 C 570.7,230.2 569.6,232.5 568.6,234.2 C 567.6,235.8 566.72,237.1 566.06,237.95 C 569.8,240.73 572.7,243.1 574.8,245.0 C 576.9,246.9 579.03,248.8 581.3,250.7 L 581.3,251.17 C 579.9,252.20 578.7,253.5 577.5,255.1 C 575.2,252.1 572.97,249.6 570.9,247.6 C 568.9,245.52 566.5,243.4 563.5,241.1 C 562.8,241.8 561.7,242.95 560.0,244.60 C 558.4,246.3 556.1,248.0 553.2,249.95 C 550.3,251.8 546.7,253.8 542.3,255.9 C 541.8,254.2 541.1,252.7 540.2,251.40 L 540.2,250.9 C 543.8,249.7 546.9,248.4 549.61,246.9 C 552.4,245.4 554.98,243.5 557.48,241.2 C 560.0,238.84 562.0,236.54 563.5,234.3 C 564.98,232.0 566.2,229.6 567.1,226.8 L 546.6,228.01 C 546.5,226.5 546.3,225.0 545.72,223.8 L 545.9,223.37"/>
		<path id="pSU1" class="stroke" d="M 556.8,219.2 C 556.8,219.2 571.9,217.3 575.3,220.12 C 578.7,222.95 574.8,230.7 573.40,234.27"/>
		<text x="551.3" y="221.8" class="number">1</text>
		<path id="pSU2" class="stroke" d="M 563.2,245.1 L 571.4,253.73"/>
		<text x="558.9" y="253.0" class="number">2</text>
	</g>
	<text x="610" y="283" id="cellKU" class="label cell">KU</text>
	<g id="gKU">
		<path id="pKU" d="M 621.6,219.0 C 621.6,218.6 621.9,218.4 622.4,218.51 L 626.7,219.4 C 627.2,219.5 627.23,219.8 626.8,220.2 L 626.2,220.8 C 625.8,222.0 625.34,223.1 624.91,224.2 L 637.9,224.23 L 638.1,224.0 C 638.2,223.9 638.3,223.9 638.5,224.04 C 639.3,224.73 640.4,225.5 641.6,226.5 C 642.1,226.9 642.1,227.3 641.6,227.8 L 640.8,228.3 C 640.6,230.04 640.0,232.3 638.97,235.0 C 637.97,237.7 636.4,240.5 634.2,243.5 C 632.0,246.4 629.3,248.96 626.2,251.3 C 623.1,253.6 619.1,255.6 613.99,257.5 C 613.49,255.9 612.81,254.5 611.97,253.3 L 611.97,252.8 C 616.1,251.98 619.7,250.54 622.8,248.5 C 625.8,246.5 628.3,244.2 630.2,241.7 C 632.2,239.17 633.6,236.7 634.5,234.3 C 635.4,231.8 635.91,229.8 636.1,228.2 L 623.1,228.2 C 622.3,229.8 621.2,231.6 619.7,233.70 C 618.24,235.8 615.99,238.3 612.95,241.1 C 611.99,239.9 610.86,238.7 609.6,237.5 L 609.6,237.3 C 612.4,235.5 614.7,233.2 616.7,230.5 C 618.6,227.7 619.95,225.2 620.74,223.0 C 621.6,220.8 621.8,219.43 621.6,219.03"/>
		<path id="pKU1" class="stroke" d="M 618.1,219.8 C 616.4,224.9 612.1,229.8 609.4,233.10"/>
		<text x="608.6" y="223.1" class="number">1</text>
		<path id="pKU2" class="stroke" d="M 634.4,221.04 C 634.4,221.04 644.5,219.98 646.7,222.81 C 648.9,225.7 644.9,232.1 643.3,235.31"/>
		<text x="638.4" y="219.1" class="number">2</text>
	</g>
	<text x="680" y="283" id="cellU" class="label cell">U</text>
	<g id="gU">
		<path id="pU" d="M 672.3,243.32 L 672.3,226.72 L 686.1,226.7 L 686.1,220.5 C 686.1,219.8 685.98,219.3 685.8,218.80 C 685.6,218.40 685.7,218.2 686.17,218.1 L 690.8,218.24 C 691.2,218.4 691.3,218.6 691.1,218.9 L 690.5,219.83 L 690.5,226.72 L 702.0,226.72 L 702.2,226.6 C 702.3,226.43 702.5,226.4 702.63,226.6 C 703.6,227.3 704.6,228.12 705.9,229.1 C 706.4,229.6 706.4,230.1 705.9,230.5 L 705.3,231.1 C 704.98,235.2 704.4,238.5 703.7,241.1 C 702.9,243.6 701.5,246.2 699.4,248.62 C 697.4,251.1 695.08,253.1 692.4,254.7 C 689.6,256.33 685.95,257.6 681.30,258.6 C 681.0,257.10 680.5,255.7 679.6,254.24 L 679.6,253.72 C 683.3,253.5 686.30,252.9 688.70,251.9 C 691.1,250.8 693.3,249.2 695.3,246.97 C 697.3,244.8 698.6,242.43 699.3,239.99 C 699.95,237.5 700.4,234.4 700.6,230.7 L 676.8,230.7 L 676.8,243.3 L 672.3,243.32"/>
		<path id="pU1" class="stroke" d="M 682.3,213.5 L 682.0,223.90"/>
		<text x="675.2" y="216.0" class="number">1</text>
		<path id="pU2" class="stroke" d="M 668.0,226.99 L 667.9,242.45"/>
		<text x="661.1" y="232.7" class="number">2</text>
		<path id="pU3" class="stroke" d="M 679.2,233.91 C 679.2,233.91 693.7,231.3 696.44,233.9 C 699.2,236.5 692.6,241.9 690.3,244.21"/>
		<text x="685.7" y="240.4" class="number">3</text>
	</g>
	<!-- -E -->
	<text x="94" y="363" id="cellWE" class="label cell">WE</text>
	<g id="gWE">
		<path id="pWE" class="old" d="M 91.5,329.4 L 109.3,329.41 L 109.3,316.3 C 109.3,315.22 109.2,314.50 109.0,314.12 C 108.98,313.6 109.2,313.4 109.7,313.4 L 113.9,313.70 C 114.4,313.80 114.5,314.1 114.2,314.5 L 113.7,315.2 L 113.7,317.8 C 117.9,315.6 120.7,313.3 122.1,310.9 L 97.7,310.9 C 97.5,309.6 97.2,308.3 96.62,307.1 L 96.6,306.72 L 124.5,306.72 L 124.7,306.5 C 124.8,306.4 124.9,306.4 125.1,306.5 C 125.9,307.2 126.91,308.2 128.3,309.5 C 128.9,309.9 128.82,310.4 128.1,310.9 L 127.2,311.3 C 125.6,314.2 121.93,317.7 116.2,321.62 C 115.6,320.4 114.7,319.3 113.7,318.3 L 113.7,329.4 L 131.4,329.41 L 131.4,333.6 L 91.5,333.6 L 91.5,329.41"/>
		<path id="pWE1" class="stroke" d="M 96.6,303.7 L 108.8,303.69"/>
		<text x="95.4" y="301.4" class="number">1</text>
		<path id="pWE2" class="stroke" d="M 106.3,314.8 L 105.96,325.87"/>
		<text x="97.9" y="322.3" class="number">2</text>
		<path id="pWE3" class="stroke" d="M 91.4,337.0 L 104.5,336.90"/>
		<text x="85.8" y="339.8" class="number">3</text>
	</g>
	<text x="162" y="363" id="cellRE" class="label cell">RE</text>
	<g id="gRE">
		<path id="pRE" d="M 164.1,331.44 L 164.1,330.97 L 165.4,330.74 L 165.4,303.41 C 165.4,302.8 165.3,302.2 165.15,301.7 C 164.97,301.3 165.1,301.07 165.5,300.97 L 170.1,301.2 C 170.5,301.3 170.6,301.6 170.4,302.0 L 169.9,302.89 L 169.9,329.7 C 171.95,329.1 174.1,328.3 176.3,327.13 C 178.6,326.0 180.98,324.2 183.6,321.7 C 186.2,319.2 188.2,316.1 189.6,312.5 L 190.1,312.4 C 191.7,313.3 193.2,314.1 194.64,314.7 C 192.6,318.1 190.2,321.2 187.6,323.99 C 184.9,326.8 181.9,329.1 178.6,330.8 C 175.2,332.6 171.2,334.1 166.6,335.5 C 165.9,333.97 165.1,332.63 164.1,331.44"/>
		<path id="pRE1" class="stroke" d="M 160.1,319.1 C 160.1,324.51 158.2,337.6 162.3,339.7 C 167.7,342.4 174.7,337.66 178.3,335.45"/>
		<text x="151.6" y="328.6" class="number">1</text>
	</g>
	<text x="289" y="363" id="cellME" class="label cell">ME</text>
	<g id="gME">
		<path id="pME" d="M 313.4,300.54 C 313.5,300.01 313.9,299.8 314.5,299.98 L 319.3,300.92 C 319.6,301.1 319.7,301.3 319.4,301.7 L 318.7,302.5 C 318.1,305.8 317.1,308.9 315.7,311.84 C 314.4,314.8 313.4,316.8 312.78,317.8 C 315.8,320.2 318.7,322.50 321.5,324.8 L 321.5,325.2 C 320.5,325.92 319.3,327.26 317.7,329.2 C 315.3,326.70 312.8,324.3 310.1,322.01 C 308.7,323.98 306.6,326.3 303.83,329.1 C 301.1,331.8 296.40,334.5 289.81,337.3 C 289.3,335.8 288.5,334.4 287.37,332.8 L 287.4,332.4 C 292.6,331.1 296.7,329.1 299.61,326.6 C 302.6,323.96 304.9,321.5 306.6,319.2 C 303.2,316.7 299.2,314.4 294.6,312.2 L 297.2,308.18 C 301.8,310.50 305.8,312.8 309.1,315.07 C 311.8,309.5 313.22,305.8 313.4,303.92 C 313.7,302.0 313.7,300.9 313.44,300.54"/>
		<path id="pME1" class="stroke" d="M 323.0,302.53 C 322.7,306.9 318.3,313.42 316.7,316.09"/>
		<text x="324.0" y="312.6" class="number">1</text>
		<path id="pME2" class="stroke" d="M 295.8,303.8 C 303.8,305.9 305.5,308.5 307.62,310.45"/>
		<text x="296.5" y="302.4" class="number">2</text>
	</g>
	<text x="353" y="363" id="cellHE" class="label cell">HE</text>
	<g id="gHE">
		<path id="pHE" d="M 363.4,306.6 C 364.2,306.64 366.3,308.14 369.7,311.14 C 373.2,314.1 379.93,318.96 390.0,325.62 L 389.97,326.2 C 388.9,327.1 387.8,328.5 386.5,330.4 C 376.3,321.95 369.9,316.8 367.6,314.9 C 365.2,312.98 363.9,312.0 363.5,312.0 C 363.0,312.03 362.4,312.5 361.7,313.3 C 360.9,314.14 357.1,317.7 350.1,323.9 C 349.1,322.5 347.93,321.4 346.7,320.61 L 346.7,320.0 C 353.9,314.86 358.3,311.32 359.9,309.5 C 361.6,307.57 362.7,306.64 363.4,306.64"/>
		<path id="pHE1" class="stroke" d="M 351.2,310.4 C 354.2,308.01 357.6,302.8 363.3,302.2 C 369.0,301.72 372.8,307.20 374.8,309.42"/>
		<text x="360.4" y="299.3" class="number">1</text>
	</g>
	<text x="417" y="363" id="cellNE" class="label cell">NE</text>
	<g id="gNE">
		<path id="pNE" d="M 431.1,296.3 C 430.6,296.4 430.5,296.61 430.7,297.02 C 430.9,297.5 430.99,298.1 430.99,298.7 L 430.99,304.8 L 419.3,304.9 L 419.2,305.30 C 419.6,306.55 419.8,307.9 419.9,309.24 C 426.6,308.8 433.1,308.5 439.30,308.5 C 437.8,311.74 435.9,314.4 433.6,316.4 C 431.3,318.4 428.6,320.14 425.6,321.7 C 422.7,323.2 418.9,324.42 414.4,325.5 L 414.4,325.99 C 415.3,327.33 415.99,328.7 416.5,330.2 C 421.2,328.5 424.6,326.95 426.8,325.7 C 428.9,324.52 430.3,323.70 430.99,323.3 L 430.99,337.2 L 435.5,337.2 L 435.5,322.1 L 435.9,321.24 C 436.2,320.9 436.1,320.64 435.8,320.5 L 435.1,320.5 C 436.1,319.7 437.33,318.6 438.9,317.2 C 440.4,315.7 442.3,312.9 444.5,308.8 L 445.7,308.2 C 446.3,307.8 446.30,307.4 445.80,306.99 C 444.3,305.95 442.99,305.1 441.95,304.4 C 441.8,304.20 441.7,304.2 441.6,304.4 L 441.3,304.70 L 435.5,304.7 L 435.5,298.3 L 436.0,297.33 C 436.3,296.95 436.3,296.7 435.83,296.6 L 431.1,296.3 z M 441.6,316.92 L 439.3,320.4 C 443.1,322.1 446.61,324.8 449.9,328.24 C 450.9,326.8 451.9,325.5 452.99,324.3 L 452.99,323.9 C 449.2,321.24 445.4,318.92 441.6,316.92 z "/>
		<path id="pNE1" class="stroke" d="M 439.5,292.45 L 439.5,301.69"/>
		<text x="442.2" y="299.9" class="number">1</text>
		<path id="pNE2" class="stroke" d="M 416.7,301.2 L 426.9,301.04"/>
		<text x="414.7" y="298.9" class="number">2</text>
		<path id="pNE3" class="stroke" d="M 427.3,326.98 L 427.3,336.37"/>
		<text x="419.2" y="335.9" class="number">3</text>
		<path id="pNE4" class="stroke" d="M 444.8,314.43 L 455.2,320.61"/>
		<text x="447.7" y="314.4" class="number">4</text>
	</g>
	<text x="483" y="363" id="cellTE" class="label cell">TE</text>
	<g id="gTE">
		<path id="pTE" d="M 484.0,303.74 L 484.0,307.9 L 508.1,307.9 L 508.1,303.74 L 484.0,303.74 z M 477.1,315.02 L 477.1,319.21 L 495.6,319.21 C 495.7,323.7 494.7,327.1 492.7,329.5 C 490.7,331.8 487.8,333.5 484.1,334.61 L 484.1,335.1 C 485.1,336.21 485.9,337.6 486.57,339.1 C 491.3,336.7 494.7,334.1 496.9,331.2 C 499.0,328.3 500.1,324.3 500.2,319.21 L 515.9,319.21 L 515.9,315.02 L 477.1,315.02 z "/>
		<path id="pTE1" class="stroke" d="M 484.0,300.2 L 496.7,300.15"/>
		<text x="484.0" y="297.3" class="number">1</text>
		<path id="pTE2" class="stroke" d="M 476.9,311.71 L 492.9,311.92"/>
		<text x="475.8" y="309.5" class="number">2</text>
		<path id="pTE3" class="stroke" d="M 503.9,321.60 C 504.3,328.2 504.4,328.35 498.8,334.92"/>
		<text x="505.5" y="329.4" class="number">3</text>
	</g>
	<text x="547" y="363" id="cellSE" class="label cell">SE</text>
	<g id="gSE">
		<path id="pSE" d="M 549.6,328.44 L 549.6,315.32 C 546.0,315.9 542.5,316.44 539.0,317.01 C 538.9,315.2 538.52,313.8 538.1,312.7 L 538.1,312.32 C 541.95,312.0 545.8,311.7 549.6,311.24 L 549.6,303.1 C 549.6,302.43 549.5,301.9 549.4,301.4 C 549.2,300.99 549.3,300.7 549.72,300.7 L 554.7,300.98 C 555.1,301.13 555.2,301.4 554.92,301.8 L 554.2,302.9 L 554.2,310.7 C 560.6,309.9 567.03,309.0 573.53,308.0 L 573.6,307.91 C 573.8,307.76 573.9,307.8 574.1,307.9 C 575.1,308.7 576.4,309.7 578.1,310.96 C 578.7,311.52 578.6,311.99 577.9,312.4 L 576.8,312.7 C 573.4,316.8 569.75,320.7 566.03,324.5 C 564.97,322.96 563.95,321.8 562.99,320.99 L 562.99,320.7 C 566.3,318.29 569.2,315.5 571.7,312.2 C 565.7,312.99 559.8,313.82 554.2,314.7 L 554.2,328.3 C 554.2,330.7 555.1,331.82 557.0,331.82 L 575.5,331.8 L 574.8,336.1 L 557.1,336.1 C 552.1,336.1 549.6,333.54 549.6,328.44"/>
		<path id="pSE1a" class="stroke" d="M 535.6,308.7 L 546.3,307.75"/>
		<path id="pSE1b" class="stroke" d="M 571.6,305.5 C 574.6,305.04 578.2,303.98 580.6,306.71 C 585.4,312.0 579.31,316.2 576.72,318.93"/>
		<text x="533.8" y="306.2" class="number">1</text>
		<path id="pSE2" class="stroke" d="M 558.1,297.6 L 558.0,307.13"/>
		<text x="561.6" y="303.1" class="number">2</text>
	</g>
	<text x="611" y="363" id="cellKE" class="label cell">KE</text>
	<g id="gKE">
		<path id="pKE" d="M 611.0,333.1 C 615.3,332.0 618.53,330.6 620.9,328.8 C 623.2,326.91 624.9,324.5 625.9,321.5 C 626.9,318.6 627.4,315.4 627.5,311.97 L 616.0,311.97 C 613.2,316.8 610.2,320.9 607.0,324.30 C 606.2,323.1 605.1,322.0 603.62,320.97 L 603.6,320.6 C 606.3,318.6 608.7,315.8 610.98,312.2 C 613.3,308.5 614.7,305.5 615.2,303.1 C 615.7,300.7 615.9,299.3 615.6,298.9 C 615.7,298.3 615.93,298.1 616.5,298.3 L 620.8,299.1 C 621.3,299.2 621.34,299.4 620.97,299.8 L 620.3,300.5 C 619.7,303.10 618.95,305.5 618.01,307.8 L 642.3,307.80 L 642.3,311.97 L 631.9,311.97 C 631.8,315.53 631.3,318.9 630.3,322.1 C 629.4,325.2 627.72,328.0 625.4,330.5 C 623.0,333.03 619.1,335.4 613.6,337.5 C 613.0,336.03 612.2,334.7 611.0,333.4 L 611.0,333.06"/>
		<path id="pKE1" class="stroke" d="M 612.1,298.2 C 611.1,303.5 606.01,310.0 603.40,313.55"/>
		<text x="602.6" y="304.4" class="number">1</text>
		<path id="pKE2" class="stroke" d="M 623.4,304.72 L 638.7,304.86"/>
		<text x="625.6" y="302.2" class="number">2</text>
		<path id="pKE3" class="stroke" d="M 634.3,315.98 C 634.5,323.4 632.6,326.3 628.29,332.01"/>
		<text x="635.6" y="325.3" class="number">3</text>
	</g>
	<text x="681" y="363" id="cellE" class="label cell">E</text>
	<g id="gE">
		<path id="pE" d="M 673.98,306.5 L 703.8,306.51 L 703.8,310.7 L 691.4,310.7 L 691.4,329.38 L 709.5,329.4 L 709.5,333.6 L 668.8,333.6 L 668.8,329.4 L 686.9,329.4 L 686.9,310.7 L 673.98,310.7 L 673.98,306.51"/>
		<path id="pE1" class="stroke" d="M 674.2,303.1 L 695.0,303.09"/>
		<text x="673.3" y="301.0" class="number">1</text>
		<path id="pE2" class="stroke" d="M 683.4,312.5 L 683.2,326.41"/>
		<text x="675.1" y="319.7" class="number">2</text>
		<path id="pE3" class="stroke" d="M 669.6,337.60 L 686.5,337.60"/>
		<text x="670.2" y="345.3" class="number">3</text>
	</g>
	<!-- -O -->
	<text x="92" y="443" id="cellWO" class="label cell">WO</text>
	<g id="gWO">
		<path id="pWO" d="M 97.6,381.8 L 125.4,381.8 L 125.7,381.5 C 125.9,381.3 125.99,381.3 126.14,381.5 C 127.4,382.4 128.52,383.3 129.61,384.2 C 130.2,384.7 130.11,385.2 129.4,385.64 L 128.7,386.2 C 128.5,389.94 128.1,393.2 127.4,395.9 C 126.8,398.5 125.4,401.4 123.2,404.5 C 121.0,407.7 118.4,410.11 115.5,411.9 C 112.6,413.7 108.8,415.2 104.1,416.6 C 103.7,415.1 103.00,413.7 102.1,412.22 L 102.1,411.71 C 105.97,411.2 109.3,410.22 112.1,408.9 C 114.97,407.5 117.2,405.61 118.9,403.3 C 120.6,400.9 121.8,398.6 122.44,396.4 L 99.3,396.43 L 99.3,392.44 L 123.4,392.4 C 123.7,390.41 123.9,388.2 123.99,385.7 L 97.6,385.74 L 97.6,381.75"/>
		<path id="pWO1" class="stroke" d="M 97.8,378.43 L 109.6,378.43"/>
		<text x="96.8" y="376.4" class="number">1</text>
		<path id="pWO2" class="stroke" d="M 96.2,389.7 L 109.9,389.73"/>
		<text x="90.1" y="392.3" class="number">2</text>
		<path id="pWO3" class="stroke" d="M 129.7,400.66 C 129.2,404.4 127.9,406.5 118.98,413.58"/>
		<text x="131.2" y="399.3" class="number">3</text>
	</g>
	<text x="161" y="443" id="cellRO" class="label cell">RO</text>
	<g id="gRO">
		<path id="pRO" d="M 160.3,384.9 L 160.3,414.6 L 164.8,414.6 L 164.8,412.2 L 188.6,412.21 L 188.6,414.64 L 193.2,414.6 L 193.2,384.9 L 160.3,384.9 z M 164.8,389.1 L 188.6,389.14 L 188.6,407.92 L 164.8,407.9 L 164.8,389.1 z "/>
		<path id="pRO1" class="stroke" d="M 155.6,389.95 L 155.5,405.41"/>
		<text x="149.0" y="394.8" class="number">1</text>
		<path id="pRO2" class="stroke" d="M 181.5,381.71 L 197.99,381.9 L 197.8,393.04"/>
		<text x="183.0" y="379.8" class="number">2</text>
		<path id="pRO3" class="stroke" d="M 167.1,415.3 L 182.4,415.42"/>
		<text x="167.2" y="423.1" class="number">3</text>
	</g>
	<text x="225" y="443" id="cellYO" class="label cell">YO</text>
	<g id="gYO">
		<path id="pYO" d="M 255.2,416.3 L 250.7,416.3 L 250.7,413.9 L 226.1,413.9 L 226.1,409.9 L 250.7,409.9 L 250.7,398.9 L 228.5,398.9 L 228.5,395.1 L 250.7,395.1 L 250.7,385.74 L 226.1,385.74 L 226.1,381.8 L 255.2,381.8 L 255.2,416.26"/>
		<path id="pYO1" class="stroke" d="M 245.9,377.8 L 259.2,377.8 L 259.2,388.22"/>
		<text x="245.6" y="375.5" class="number">1</text>
		<path id="pYO2" class="stroke" d="M 226.99,391.4 L 244.95,391.72"/>
		<text x="220.4" y="393.7" class="number">2</text>
		<path id="pYO3" class="stroke" d="M 225.5,406.44 L 238.0,406.44"/>
		<text x="219.3" y="408.8" class="number">3</text>
	</g>
	<text x="287" y="443" id="cellMO" class="label cell">MO</text>
	<g id="gMO">
		<path id="pMO" d="M 288.9,383.8 L 288.9,387.8 L 300.5,387.8 L 317.6,387.8 L 317.6,383.8 L 288.9,383.8 z M 300.5,387.8 C 300.1,387.9 299.94,388.1 300.12,388.5 C 300.3,389.01 300.4,389.6 300.4,390.23 L 300.4,396.20 L 285.4,396.20 L 285.4,400.2 L 300.4,400.2 L 300.4,407.54 C 300.4,412.64 302.9,415.2 307.9,415.2 L 320.8,415.2 L 321.5,410.9 L 307.5,410.92 C 305.8,410.9 304.9,409.7 304.9,407.4 L 304.9,400.2 L 323.94,400.2 L 323.94,396.2 L 304.9,396.2 L 304.9,389.8 L 305.44,388.9 C 305.7,388.51 305.7,388.3 305.3,388.2 L 300.5,387.8 z "/>
		<path id="pMO1" class="stroke" d="M 289.8,380.1 L 309.2,380.10"/>
		<text x="289.1" y="377.3" class="number">1</text>
		<path id="pMO2" class="stroke" d="M 286.7,392.6 L 297.3,392.59"/>
		<text x="280.9" y="393.9" class="number">2</text>
		<path id="pMO3" class="stroke" d="M 296.8,407.6 C 296.7,411.6 296.6,415.4 297.7,416.97 C 298.9,418.6 304.0,418.32 308.6,418.29"/>
		<text x="290.1" y="415.9" class="number">3</text>
	</g>
	<text x="351" y="443" id="cellHO" class="label cell">HO</text>
	<g id="gHO">
		<path id="pHO" d="M 365.7,379.6 C 365.4,379.7 365.4,379.9 365.4,380.36 C 365.6,380.7 365.7,381.5 365.7,382.5 L 365.7,388.9 L 348.6,388.9 L 348.6,392.9 L 365.7,392.9 L 365.7,412.3 C 365.7,412.8 365.6,413.2 365.42,413.5 C 365.3,413.7 364.92,413.7 364.4,413.5 C 363.8,413.3 363.0,412.9 361.9,412.4 L 361.6,412.5 C 361.5,413.95 361.2,415.5 360.8,416.92 C 362.7,417.5 364.3,417.8 365.6,418.1 C 366.9,418.30 367.99,418.1 368.8,417.3 C 369.6,416.58 370.0,415.83 370.1,415.08 C 370.1,414.33 370.1,413.33 370.1,412.1 L 370.1,392.9 L 387.8,392.9 L 387.8,388.9 L 370.1,388.9 L 370.1,381.52 L 370.6,380.5 C 370.8,380.1 370.70,379.9 370.4,379.7 L 365.99,379.6 C 365.9,379.6 365.8,379.6 365.7,379.6 z M 378.6,397.4 L 375.5,400.2 C 378.6,403.7 382.1,407.7 386.02,412.2 C 387.6,410.6 388.9,409.4 389.99,408.7 L 389.99,408.4 C 385.6,404.83 381.8,401.14 378.6,397.4 z M 356.6,398.8 C 356.4,398.8 356.3,398.97 356.2,399.20 C 356.2,399.5 355.6,400.8 354.42,403.2 C 353.3,405.5 351.1,408.0 347.80,410.8 L 347.8,411.30 C 349.2,412.20 350.4,413.3 351.4,414.5 C 355.1,410.2 358.1,406.0 360.24,401.8 L 361.1,401.30 C 361.6,400.95 361.6,400.7 360.99,400.5 L 357.1,398.92 C 356.9,398.8 356.7,398.72 356.6,398.8 z "/>
		<path id="pHO1" class="stroke" d="M 348.96,385.9 L 360.6,386.02"/>
		<text x="347.7" y="383.1" class="number">1</text>
		<path id="pHO2" class="stroke" d="M 374.2,376.6 L 374.1,386.08"/>
		<text x="377.1" y="382.2" class="number">2</text>
		<path id="pHO3" class="stroke" d="M 354.0,397.4 L 346.5,406.80"/>
		<text x="342.5" y="400.2" class="number">3</text>
		<path id="pHO4" class="stroke" d="M 383.6,397.6 L 391.5,405.41"/>
		<text x="389.1" y="400.0" class="number">4</text>
	</g>
	<text x="419" y="443" id="cellNO" class="label cell">NO</text>
	<g id="gNO">
		<path id="pNO" d="M 442.99,380.1 C 442.96,379.5 443.24,379.3 443.83,379.5 L 448.9,380.6 C 449.4,380.8 449.4,381.11 449.0,381.51 L 448.2,382.31 C 447.7,385.3 446.5,389.03 444.5,393.6 C 442.6,398.1 439.9,402.11 436.5,405.70 C 433.1,409.3 427.7,412.7 420.2,416.0 C 419.6,414.32 418.7,412.8 417.6,411.4 L 417.6,411.0 C 423.5,409.7 428.3,407.28 431.9,403.9 C 435.6,400.5 438.3,396.6 440.1,392.3 C 441.9,387.9 442.9,384.84 443.1,383.2 C 443.3,381.5 443.2,380.43 442.99,380.06"/>
		<path id="pNO1" class="stroke" d="M 438.9,380.3 C 437.4,388.8 432.98,393.1 429.7,396.75"/>
		<text x="429.7" y="387.1" class="number">1</text>
	</g>
	<text x="482" y="443" id="cellTO" class="label cell">TO</text>
	<g id="gTO">
		<path id="pTO" d="M 494.2,388.7 C 500.1,391.30 505.6,394.4 510.5,398.0 L 510.5,398.4 C 509.5,399.60 508.6,400.97 507.7,402.5 C 502.5,397.8 497.5,394.5 492.74,392.7 L 492.7,407.91 C 492.7,411.3 492.8,413.90 492.9,415.74 L 488.0,415.74 C 488.2,412.6 488.3,407.8 488.3,401.4 L 488.3,378.2 C 488.3,377.5 488.2,376.93 488.0,376.5 C 487.8,376.1 487.95,375.8 488.4,375.7 L 493.1,375.99 C 493.5,376.2 493.5,376.41 493.2,376.8 L 492.7,377.63 L 492.7,391.3 L 494.2,388.65"/>
		<path id="pTO1" class="stroke" d="M 484.4,377.4 L 484.3,393.11"/>
		<text x="477.1" y="384.7" class="number">1</text>
		<path id="pTO2" class="stroke" d="M 498.2,386.9 L 509.6,393.32"/>
		<text x="501.5" y="385.3" class="number">2</text>
	</g>
	<text x="546" y="443" id="cellSO" class="label cell">SO</text>
	<g id="gSO">
		<path id="pSO" d="M 572.5,382.4 C 572.2,382.4 571.96,382.6 571.9,383.0 C 572.1,383.4 572.1,384.81 571.8,387.3 C 571.4,389.81 570.6,392.97 569.2,396.81 C 567.9,400.6 565.4,404.1 561.7,407.1 C 558.1,410.1 553.9,412.2 548.98,413.3 L 548.98,413.7 C 549.98,414.9 550.70,416.3 551.14,417.9 C 557.6,415.4 562.6,412.5 566.1,409.2 C 569.6,405.8 572.10,402.1 573.6,397.84 C 575.2,393.62 576.3,389.28 576.95,384.8 L 577.7,384.0 C 578.0,383.7 578.0,383.4 577.6,383.2 L 572.9,382.43 C 572.8,382.4 572.63,382.4 572.5,382.4 z M 548.1,384.03 L 544.7,386.68 C 547.5,389.84 549.8,393.2 551.5,396.62 C 553.1,395.34 554.5,394.34 555.7,393.62 C 553.5,390.3 550.9,387.1 548.1,384.03 z "/>
		<path id="pSO1" class="stroke" d="M 550.6,381.5 L 558.1,390.92"/>
		<text x="553.4" y="382.1" class="number">1</text>
		<path id="pSO2" class="stroke" d="M 581.4,384.7 C 581.8,391.96 576.2,401.6 573.9,406.12"/>
		<text x="582.3" y="396.9" class="number">2</text>
	</g>
	<text x="608" y="443" id="cellKO" class="label cell">KO</text>
	<g id="gKO">
		<path id="pKO" d="M 610.0,384.24 L 641.3,384.2 L 641.3,412.8 L 636.7,412.8 L 636.7,410.81 L 610.0,410.81 L 610.0,406.6 L 636.7,406.6 L 636.7,388.50 L 610.0,388.50 L 610.0,384.24"/>
		<path id="pKO1" class="stroke" d="M 629.5,380.7 L 646.5,380.23 L 646.7,391.86"/>
		<text x="629.8" y="377.9" class="number">1</text>
		<path id="pKO2" class="stroke" d="M 608.6,414.2 L 622.98,414.24"/>
		<text x="608.2" y="422.0" class="number">2</text>
	</g>
	<text x="680" y="443" id="cellO" class="label cell">O</text>
	<g id="gO">
		<path id="pO" d="M 692.6,376.5 L 697.0,376.7 C 697.4,376.8 697.5,377.0 697.22,377.4 L 696.7,378.3 L 696.7,386.04 L 710.95,386.0 L 710.95,390.2 L 696.7,390.21 L 696.7,410.04 C 696.7,411.32 696.7,412.40 696.7,413.3 C 696.6,414.2 696.19,414.9 695.44,415.6 C 694.7,416.3 693.5,416.50 691.8,416.3 C 690.2,416.1 688.1,415.7 685.7,415.01 C 686.2,413.60 686.6,412.2 686.9,410.7 L 687.2,410.5 C 688.7,411.2 689.8,411.5 690.6,411.6 C 691.3,411.73 691.8,411.7 691.97,411.5 C 692.2,411.2 692.3,410.8 692.3,410.2 L 692.3,393.1 C 690.3,396.2 687.7,399.4 684.52,402.6 C 681.4,405.9 677.4,409.37 672.5,413.2 C 671.6,411.53 670.6,410.23 669.5,409.3 L 669.5,408.92 C 673.8,406.5 677.8,403.4 681.3,399.8 C 684.8,396.12 687.2,392.93 688.6,390.2 L 670.3,390.2 L 670.3,386.0 L 692.3,386.0 L 692.3,379.4 C 692.3,378.3 692.2,377.6 691.97,377.2 C 691.8,376.7 692.1,376.4 692.62,376.48"/>
		<path id="pO1" class="stroke" d="M 670.5,383.03 L 685.98,382.88"/>
		<text x="669.5" y="381.1" class="number">1</text>
		<path id="pO2" class="stroke" d="M 700.8,373.63 L 700.7,383.79"/>
		<text x="703.1" y="376.9" class="number">2</text>
		<path id="pO3" class="stroke" d="M 683.3,392.5 C 680.95,395.6 674.1,401.3 670.9,403.73"/>
		<text x="670.0" y="397.7" class="number">3</text>
	</g>
	<!-- column headers -->
	<text x="38" y="35" id="colN" class="label col">n</text>
	<text x="102" y="35" id="colw" class="label col">w</text>
	<text x="170" y="35" id="colr" class="label col">r</text>
	<text x="234" y="35" id="coly" class="label col">y</text>
	<text x="296" y="35" id="colm" class="label col">m</text>
	<text x="362" y="35" id="colh" class="label col">h</text>
	<text x="426" y="35" id="coln" class="label col">n</text>
	<text x="492" y="35" id="colt" class="label col">t</text>
	<text x="556" y="35" id="cols" class="label col">s</text>
	<text x="618" y="35" id="colk" class="label col">k</text>
	<!-- row headers -->
	<text x="736" y="91" id="rowa" class="label row">a</text>
	<text x="736" y="171" id="rowi" class="label row">i</text>
	<text x="736" y="253" id="rowu" class="label row">u</text>
	<text x="736" y="333" id="rowe" class="label row">e</text>
	<text x="736" y="411" id="rowo" class="label row">o</text>
</svg>
